<svg width="256" xmlns='http://www.w3.org/2000/svg' style='font-size:initial;' class="pikchr" viewBox="0 0 268.474 359.28">
<path d="M2.16,357.12L266.314,357.12L266.314,2.16L2.16,2.16Z"  style="fill:rgb(240,240,240);stroke-width:2.16;stroke:rgb(0,0,0);" />
<path d="M38.16,68.4L230.314,68.4L230.314,38.16L38.16,38.16Z"  style="fill:rgb(255,228,196);stroke-width:2.16;stroke:rgb(0,0,0);" />
<text x="134.237" y="53.28" text-anchor="middle" fill="rgb(0,0,0)" dominant-baseline="central">Logitech X52 joystick</text>
<polygon points="134.237,122.4 129.917,110.88 138.557,110.88" style="fill:rgb(0,0,0)"/>
<path d="M134.237,68.4L134.237,116.64"  style="fill:none;stroke-width:2.16;stroke:rgb(0,0,0);" />
<text x="134.237" y="95.4" text-anchor="middle" fill="rgb(0,0,0)" dominant-baseline="central">USB   cable</text>
<path d="M71.3376,152.64L197.136,152.64L197.136,122.4L71.3376,122.4Z"  style="fill:rgb(255,228,196);stroke-width:2.16;stroke:rgb(0,0,0);" />
<text x="134.237" y="137.52" text-anchor="middle" fill="rgb(0,0,0)" dominant-baseline="central">hid-remapper</text>
<polygon points="134.237,206.64 129.917,195.12 138.557,195.12" style="fill:rgb(0,0,0)"/>
<path d="M134.237,152.64L134.237,200.88"  style="fill:none;stroke-width:2.16;stroke:rgb(0,0,0);" />
<text x="134.237" y="179.64" text-anchor="middle" fill="rgb(0,0,0)" dominant-baseline="central">USB   cable</text>
<path d="M60.048,236.88L208.426,236.88L208.426,206.64L60.048,206.64Z"  style="fill:rgb(255,228,196);stroke-width:2.16;stroke:rgb(0,0,0);" />
<text x="134.237" y="221.76" text-anchor="middle" fill="rgb(0,0,0)" dominant-baseline="central">Wingman FGC 2</text>
<polygon points="134.237,290.88 129.917,279.36 138.557,279.36" style="fill:rgb(0,0,0)"/>
<path d="M134.237,236.88L134.237,285.12"  style="fill:none;stroke-width:2.16;stroke:rgb(0,0,0);" />
<text x="134.237" y="263.88" text-anchor="middle" fill="rgb(0,0,0)" dominant-baseline="central">USB   cable</text>
<path d="M72.7776,321.12L195.696,321.12L195.696,290.88L72.7776,290.88Z"  style="fill:rgb(255,228,196);stroke-width:2.16;stroke:rgb(0,0,0);" />
<text x="134.237" y="306" text-anchor="middle" fill="rgb(0,0,0)" dominant-baseline="central">PlayStation 5</text>
</svg>

